<svg width="76" height="63" viewBox="0 0 76 63" fill="none" xmlns="http://www.w3.org/2000/svg">
<path d="M22.1667 19.6875C30.9112 19.6875 38 16.7494 38 13.125C38 9.50063 30.9112 6.5625 22.1667 6.5625C13.4222 6.5625 6.33333 9.50063 6.33333 13.125C6.33333 16.7494 13.4222 19.6875 22.1667 19.6875Z" stroke="#333333" stroke-width="2" stroke-linecap="round" stroke-linejoin="round"/>
<path d="M6.33333 13.125C6.33333 13.125 6.33333 18.6882 6.33333 22.3125C6.33333 25.9368 13.4221 28.875 22.1667 28.875C30.9111 28.875 38 25.9368 38 22.3125C38 20.1658 38 13.125 38 13.125" stroke="#333333" stroke-width="2" stroke-linecap="round" stroke-linejoin="round"/>
<path d="M6.33333 22.3125C6.33333 22.3125 6.33333 27.8757 6.33333 31.5C6.33333 35.1243 13.4221 38.0625 22.1667 38.0625C30.9111 38.0625 38 35.1243 38 31.5C38 29.3533 38 22.3125 38 22.3125" stroke="#333333" stroke-width="2" stroke-linecap="round" stroke-linejoin="round"/>
<path d="M6.33333 31.5C6.33333 31.5 6.33333 37.0632 6.33333 40.6875C6.33333 44.3118 13.4221 47.25 22.1667 47.25C30.9111 47.25 38 44.3118 38 40.6875C38 38.5408 38 31.5 38 31.5" stroke="#333333" stroke-width="2" stroke-linecap="round" stroke-linejoin="round"/>
<path d="M6.33333 40.6875C6.33333 40.6875 6.33333 46.2507 6.33333 49.875C6.33333 53.4993 13.4221 56.4375 22.1667 56.4375C30.9111 56.4375 38 53.4993 38 49.875C38 47.7283 38 40.6875 38 40.6875" stroke="#333333" stroke-width="2" stroke-linecap="round" stroke-linejoin="round"/>
<path d="M53.8333 38.0625C62.5778 38.0625 69.6667 35.1244 69.6667 31.5C69.6667 27.8756 62.5778 24.9375 53.8333 24.9375C45.0888 24.9375 38 27.8756 38 31.5C38 35.1244 45.0888 38.0625 53.8333 38.0625Z" stroke="#333333" stroke-width="2" stroke-linecap="round" stroke-linejoin="round"/>
<path d="M38 31.5C38 31.5 38 37.0632 38 40.6875C38 44.3118 45.0889 47.25 53.8333 47.25C62.5778 47.25 69.6667 44.3118 69.6667 40.6875C69.6667 38.5408 69.6667 31.5 69.6667 31.5" stroke="#333333" stroke-width="2" stroke-linecap="round" stroke-linejoin="round"/>
<path d="M38 40.6875C38 40.6875 38 46.2507 38 49.875C38 53.4993 45.0889 56.4375 53.8333 56.4375C62.5778 56.4375 69.6667 53.4993 69.6667 49.875C69.6667 47.7283 69.6667 40.6875 69.6667 40.6875" stroke="#333333" stroke-width="2" stroke-linecap="round" stroke-linejoin="round"/>
</svg>
