<svg width="70" height="63" viewBox="0 0 70 63" fill="none" xmlns="http://www.w3.org/2000/svg">
<path d="M5.83334 17.0625H64.1667V48.5625H5.83334V17.0625Z" stroke="#333333" stroke-width="2" stroke-linejoin="round"/>
<path fill-rule="evenodd" clip-rule="evenodd" d="M5.83334 27.5625C12.2767 27.5625 17.5 22.8615 17.5 17.0625H5.83334V27.5625Z" stroke="#333333" stroke-width="2" stroke-linecap="round" stroke-linejoin="round"/>
<path fill-rule="evenodd" clip-rule="evenodd" d="M5.83334 38.0625C12.2767 38.0625 17.5 42.7635 17.5 48.5625H5.83334V38.0625Z" stroke="#333333" stroke-width="2" stroke-linecap="round" stroke-linejoin="round"/>
<path fill-rule="evenodd" clip-rule="evenodd" d="M64.1667 38.0625V48.5625H52.5C52.5 42.7635 57.7233 38.0625 64.1667 38.0625Z" stroke="#333333" stroke-width="2" stroke-linecap="round" stroke-linejoin="round"/>
<path fill-rule="evenodd" clip-rule="evenodd" d="M64.1667 27.5625C57.7233 27.5625 52.5 22.8615 52.5 17.0625H64.1667V27.5625Z" stroke="#333333" stroke-width="2" stroke-linecap="round" stroke-linejoin="round"/>
<path d="M35 40.6875C39.0271 40.6875 42.2917 37.1617 42.2917 32.8125C42.2917 28.4633 39.0271 24.9375 35 24.9375C30.973 24.9375 27.7083 28.4633 27.7083 32.8125C27.7083 37.1617 30.973 40.6875 35 40.6875Z" stroke="#333333" stroke-width="2" stroke-linejoin="round"/>
</svg>
